#tb 0: 2/25
#media_type 0: video
#codec_id 0: rawvideo
#dimensions 0: 704x288
#sar 0: 0/1
0,          0,          0,        1,   304128, 0xb9c0ef40
0,          1,          1,        1,   304128, 0xfa0b7709
0,          2,          2,        1,   304128, 0x14255f47
0,          3,          3,        1,   304128, 0xa9da07de
0,          4,          4,        1,   304128, 0x9d64b93b
